2014001_C5_01_grf
version=1
nRows=15
nColumns=19
inDegrees=no
endheader
time	ground_force_1_vx	ground_force_1_vy	ground_force_1_vz	ground_force_1_px	ground_force_1_py	ground_force_1_pz	ground_force_1_mx	ground_force_1_my	ground_force_1_mz	ground_force_2_vx	ground_force_2_vy	ground_force_2_vz	ground_force_2_px	ground_force_2_py	ground_force_2_pz	ground_force_2_mx	ground_force_2_my	ground_force_2_mz
      0.62500000	      0.00000000	      0.00000000	      0.00000000	      0.00000000	      0.00000000	      0.00000000	      0.00000000	      0.00000000	      0.00000000	    -15.01815696	    314.34914097	    -29.89605144	      0.86624650	     -0.00200000	     -0.14971080	     -0.00000000	     -1.76481845	      0.00000000
      0.62600000	      0.00000000	      0.00000000	      0.00000000	      0.00000000	      0.00000000	      0.00000000	      0.00000000	      0.00000000	      0.00000000	    -14.65148432	    309.67183411	    -30.23715466	      0.86745927	     -0.00200000	     -0.14894467	      0.00000000	     -1.77577013	      0.00000000
      0.62700000	      0.00000000	      0.00000000	      0.00000000	      0.00000000	      0.00000000	      0.00000000	      0.00000000	      0.00000000	      0.00000000	    -14.29878641	    305.12649566	    -30.54082654	      0.86868165	     -0.00200000	     -0.14818230	      0.00000000	     -1.78683155	      0.00000000
      0.62800000	      0.00000000	      0.00000000	      0.00000000	      0.00000000	      0.00000000	      0.00000000	      0.00000000	      0.00000000	      0.00000000	    -13.95597216	    300.68848282	    -30.81432134	      0.86991041	     -0.00200000	     -0.14742405	      0.00000000	     -1.79782912	      0.00000000
      0.62900000	      0.00000000	      0.00000000	      0.00000000	      0.00000000	      0.00000000	      0.00000000	      0.00000000	      0.00000000	      0.00000000	    -13.62387836	    296.38687149	    -31.04997240	      0.87114534	     -0.00200000	     -0.14667238	      0.00000000	     -1.80855956	      0.00000000
      0.63000000	      0.00000000	      0.00000000	      0.00000000	      0.00000000	      0.00000000	      0.00000000	      0.00000000	      0.00000000	      0.00000000	    -13.29904329	    292.19623655	    -31.25536814	      0.87238375	     -0.00200000	     -0.14592709	      0.00000000	     -1.81892832	      0.00000000
      0.63100000	      0.00000000	      0.00000000	      0.00000000	      0.00000000	      0.00000000	      0.00000000	      0.00000000	      0.00000000	      0.00000000	    -12.98163040	    288.14671561	    -31.42313585	      0.87362454	     -0.00200000	     -0.14519123	      0.00000000	     -1.82866369	      0.00000000
      0.63200000	      0.00000000	      0.00000000	      0.00000000	      0.00000000	      0.00000000	      0.00000000	      0.00000000	      0.00000000	      0.00000000	    -12.66882895	    284.21206400	    -31.56106621	      0.87486565	     -0.00200000	     -0.14446404	      0.00000000	     -1.83775137	      0.00000000
      0.63300000	      0.00000000	      0.00000000	      0.00000000	      0.00000000	      0.00000000	      0.00000000	      0.00000000	      0.00000000	      0.00000000	    -12.36013602	    280.42353690	    -31.66218884	      0.87610506	     -0.00200000	     -0.14374915	      0.00000000	     -1.84586022	      0.00000000
      0.63400000	      0.00000000	      0.00000000	      0.00000000	      0.00000000	      0.00000000	      0.00000000	      0.00000000	      0.00000000	      0.00000000	    -12.05341145	    276.75395831	    -31.73437044	      0.87734142	     -0.00200000	     -0.14304522	      0.00000000	     -1.85305672	      0.00000000
      0.63500000	      0.00000000	      0.00000000	      0.00000000	      0.00000000	      0.00000000	      0.00000000	      0.00000000	      0.00000000	      0.00000000	    -11.74751460	    273.23564515	    -31.77114688	      0.87857176	     -0.00200000	     -0.14235643	      0.00000000	     -1.85896244	      0.00000000
      0.63600000	      0.00000000	      0.00000000	      0.00000000	      0.00000000	      0.00000000	      0.00000000	      0.00000000	      0.00000000	      0.00000000	    -11.44098281	    269.84047145	    -31.78032562	      0.87979551	     -0.00200000	     -0.14168088	      0.00000000	     -1.86372674	      0.00000000
      0.63700000	      0.00000000	      0.00000000	      0.00000000	      0.00000000	      0.00000000	      0.00000000	      0.00000000	      0.00000000	      0.00000000	    -11.13206323	    266.60188101	    -31.75603934	      0.88100873	     -0.00200000	     -0.14102331	      0.00000000	     -1.86694280	      0.00000000
      0.63800000	      0.00000000	      0.00000000	      0.00000000	      0.00000000	      0.00000000	      0.00000000	      0.00000000	      0.00000000	      0.00000000	    -10.81997878	    263.49069551	    -31.70590773	      0.88221168	     -0.00200000	     -0.14038124	      0.00000000	     -1.86883496	      0.00000000
      0.63900000	      0.00000000	      0.00000000	      0.00000000	      0.00000000	      0.00000000	      0.00000000	      0.00000000	      0.00000000	      0.00000000	    -10.50240523	    260.54142043	    -31.62474521	      0.88339947	     -0.00200000	     -0.13975989	      0.00000000	     -1.86898127	      0.00000000
